<svg id="Capa_1" data-name="Capa 1" xmlns="http://www.w3.org/2000/svg" viewBox="0 0 100 100"><defs><style>.cls-1{fill:#18559e;stroke:#18559e;stroke-miterlimit:10;}</style></defs><path class="cls-1" d="M9.5,69.8h-6a.4.4,0,0,1-.4-.4V38a.4.4,0,0,1,.4-.4h6a.4.4,0,0,1,.4.4V69.4A.4.4,0,0,1,9.5,69.8ZM3.9,69H9.1V38.4H3.9Z"/><path class="cls-1" d="M4.9,38.4a.4.4,0,0,1-.4-.4V30a10,10,0,0,1,10-10h7.2c.2,0,.3.1.4.3a.8.8,0,0,1-.2.4,1.6,1.6,0,0,0-.8,1.4v.3a1.5,1.5,0,0,0,.7,1.3h.1a.8.8,0,0,1,.2.4.5.5,0,0,1-.4.3H14.1a5.4,5.4,0,0,0-5.3,5.4v6.6a.4.4,0,0,1-.4.4.4.4,0,0,1-.4-.4V29.9a6.1,6.1,0,0,1,6.1-6.2h6.6a2,2,0,0,1-.4-1.3v-.3a2,2,0,0,1,.4-1.3H14.5A9.2,9.2,0,0,0,5.3,30v8A.4.4,0,0,1,4.9,38.4Z"/><path class="cls-1" d="M42,22.7H23.6a.4.4,0,0,1-.4-.4c0-.3.1-.4.4-.4H42a.4.4,0,0,1,.4.4A.4.4,0,0,1,42,22.7Z"/><path class="cls-1" d="M42,19.6h-.2l-6.3-3.4a.4.4,0,0,1-.2-.5.5.5,0,0,1,.6-.2l6.3,3.3c.2.2.3.4.2.6Z"/><path class="cls-1" d="M35.7,29.1l-.4-.2a.5.5,0,0,1,.2-.6L41.8,25a.4.4,0,0,1,.6.1.5.5,0,0,1-.2.6L35.9,29Z"/><path class="cls-1" d="M51.4,87H44.9a.4.4,0,0,1-.4-.4V21.5a.4.4,0,0,1,.4-.4H96.5a.4.4,0,0,1,.4.4v6.4a.4.4,0,0,1-.8,0v-6H45.3V86.2H51V27.9a.4.4,0,0,1,.4-.4H93.2a.4.4,0,0,1,.4.4.4.4,0,0,1-.4.4H51.8V86.6A.4.4,0,0,1,51.4,87Z"/><path class="cls-1" d="M51.4,28.3h-.2l-6.6-6.4a.6.6,0,0,1,0-.6.4.4,0,0,1,.6,0l6.5,6.4c.2.1.2.4,0,.6Z"/><path class="cls-1" d="M44.9,17.9l-.4-.2L43,13.6a.6.6,0,0,1,.3-.6.5.5,0,0,1,.5.3l1.5,4.1c.1.2,0,.4-.3.5Z"/></svg>