<svg id="Capa_1" data-name="Capa 1" xmlns="http://www.w3.org/2000/svg" viewBox="0 0 100 100"><defs><style>.cls-1{fill:#18559e;stroke:#18559e;stroke-miterlimit:10;}</style></defs><path class="cls-1" d="M73.1,9.3h-.3c-.2-.2-.1-.4,0-.6a1,1,0,0,0,.4-.5,1.7,1.7,0,0,0,0-1,1.6,1.6,0,0,0-.7-.9h0c-.3-.1-1-.4-1.4-.2s-.4.1-.5-.1a.4.4,0,0,1,.1-.6,2.3,2.3,0,0,1,2.1.2A2,2,0,0,1,74,6.8a2,2,0,0,1-.1,1.7,1.8,1.8,0,0,1-.5.7Z"/><path class="cls-1" d="M72,13a1.5,1.5,0,0,1-.9-.2l-.4-.2a2.1,2.1,0,0,1-1.3-2,.5.5,0,0,1,.4-.5h0c.3.1.5.2.5.5a1.4,1.4,0,0,0,.8,1.3h.3a1.4,1.4,0,0,0,1.9-.6,1.4,1.4,0,0,0,.1-1.1c-.2-.4-.4-.7-.8-.8h0c-.3-.1-1-.4-1.3-.2a.4.4,0,0,1-.6-.1.5.5,0,0,1,.2-.6c.8-.5,1.9.1,2.1.2A2.2,2.2,0,0,1,74.2,10a2,2,0,0,1-.1,1.7A2.3,2.3,0,0,1,72,13Z"/><path class="cls-1" d="M33.1,97l-1-.3a2.5,2.5,0,0,1-1.4-2.2.4.4,0,0,1,.4-.4h0a.5.5,0,0,1,.5.4,1.5,1.5,0,0,0,.9,1.5,1.3,1.3,0,0,0,1.2,0,1.4,1.4,0,0,0,.9-.8L72.1,13.5a.5.5,0,0,1,.6-.2.4.4,0,0,1,.2.5L35.4,95.5A2.5,2.5,0,0,1,34,96.8Z"/><path class="cls-1" d="M29.8,95.4a1.8,1.8,0,0,1-1-.2A2.4,2.4,0,0,1,27.6,92L66.3,7.6a.5.5,0,0,1,.6-.2c.2,0,.3.2.2.5l-.2.8a1.4,1.4,0,0,0,.8,1.6l.4.2A1.5,1.5,0,0,0,70,9.8a1.4,1.4,0,0,0,0-1.1,1.8,1.8,0,0,0-.7-.8h0c-.3-.1-1-.4-1.4-.2s-.4.1-.5-.1a.4.4,0,0,1,.1-.6c.8-.5,2,.1,2.2.2a2.2,2.2,0,0,1,1.1,1.2,2.3,2.3,0,0,1-3.1,2.9l-.3-.2a2,2,0,0,1-1.2-1.2L28.4,92.3a1.6,1.6,0,1,0,2.8,1.4L68.8,11.9a.4.4,0,0,1,.5-.2.5.5,0,0,1,.2.6L32,94A2.4,2.4,0,0,1,29.8,95.4Z"/><path class="cls-1" d="M68.8,6.4h-.1c-.3-.1-.4-.3-.3-.5a1.4,1.4,0,0,0-.8-1.7h0c-.3-.2-1-.4-1.3-.2a.5.5,0,0,1-.6-.2.5.5,0,0,1,.1-.6,2.5,2.5,0,0,1,2.2.2,2.3,2.3,0,0,1,1.2,2.7C69.1,6.3,69,6.4,68.8,6.4Z"/><path class="cls-1" d="M27.3,91.5h-.2a2.6,2.6,0,0,1-1.2-3.3L64.7,3.8a.4.4,0,0,1,.5-.2.5.5,0,0,1,.3.5l-.2.9a1.4,1.4,0,0,0,.8,1.6l.3.2a.4.4,0,0,1-.3.7h-.4a3,3,0,0,1-1.2-1.3L26.7,88.6a1.6,1.6,0,0,0,.8,2.1.4.4,0,0,1,.2.6Z"/></svg>