<svg id="Capa_1" data-name="Capa 1" xmlns="http://www.w3.org/2000/svg" viewBox="0 0 100 100"><defs><style>.cls-1{fill:#18559e;stroke:#18559e;stroke-miterlimit:10;}</style></defs><path class="cls-1" d="M19.6,27.9c-7.9,0-16.3-1.5-16.3-4.2,0-.6.5-1.3,1.5-1.8a.4.4,0,0,1,.5.2c.2.2.1.4-.1.5s-1.1.8-1.1,1.1S10,27,19.6,27s15.5-1.9,15.5-3.3-5.9-3.3-15.5-3.3a.4.4,0,0,1,0-.8c7.9,0,16.3,1.4,16.3,4.1S27.5,27.9,19.6,27.9Z"/><path class="cls-1" d="M26.2,49.3H15a.5.5,0,0,1-.5-.4V46L3.4,23.9c-.1-.2-.1-.4.1-.5a.4.4,0,0,1,.6.1L15.3,45.7c.1.1.1.1.1.2v2.6H26.2a.4.4,0,0,1,0,.8Z"/><path class="cls-1" d="M26.2,46.2H26a.4.4,0,0,1-.2-.6l9.3-22c.1-.3.4-.3.6-.3a.5.5,0,0,1,.2.6L26.6,46Z"/><path class="cls-1" d="M61.8,52.9h0a.5.5,0,0,1-.4-.5,7.2,7.2,0,0,1,1.1-3.1H26.2a.4.4,0,1,1,0-.8H63.4c.2,0,.4.1.4.3s0,.3-.1.4-1.2.9-1.4,3.3C62.2,52.7,62.1,52.9,61.8,52.9Z"/><path class="cls-1" d="M27.7,80.4H16.6a.6.6,0,0,1-.1-.4l4.2-17.3L7.2,56.2a.5.5,0,0,1-.2-.4V48.9a.4.4,0,0,1,.4-.4h5.3a.4.4,0,0,1,0,.8H7.8v6.3l13.6,6.3c.2.1.2.3.2.5L17.5,79.6h9.9L29.6,70a.4.4,0,0,1,.4-.3,9,9,0,0,0,8.6-6.1l.4-1.2H30.5a.4.4,0,1,1,0-.8l32.2-3.9a3.5,3.5,0,0,1-.6-.9.4.4,0,0,1,.8-.4,6.9,6.9,0,0,0,.8,1.4c.1.1.2.3.1.4a.5.5,0,0,1-.3.3L37.6,61.6h2c.1,0,.3,0,.3.1a.6.6,0,0,1,.1.4l-.6,1.8a10.2,10.2,0,0,1-9.1,6.7l-2.2,9.5C28,80.3,27.9,80.4,27.7,80.4Z"/><path class="cls-1" d="M62.5,57a.4.4,0,1,1,0-.8l10.2-.9a4.7,4.7,0,0,1-.2-4.9l-7.9.4a.4.4,0,0,1-.4-.4.7.7,0,0,1,.4-.5l9.1-.4c.2-.1.4.1.4.3s-.1.4-.3.5-1,.3-1,2.4,1,2.5,1.1,2.5a.4.4,0,0,1,.2.5.3.3,0,0,1-.3.3L62.5,57Z"/><path class="cls-1" d="M75.1,54.8c-.3,0-.4-.2-.5-.4a.7.7,0,0,1,.4-.5h.9A1.2,1.2,0,0,0,77,52.6a1.2,1.2,0,0,0-1.3-1.1h-.9a.4.4,0,1,1,0-.8h.9a1.9,1.9,0,0,1,2.1,1.8A2,2,0,0,1,76,54.7Z"/><path class="cls-1" d="M81,51.8a.5.5,0,0,1-.4-.5V48.7a.4.4,0,1,1,.8,0v2.6A.5.5,0,0,1,81,51.8Z"/><path class="cls-1" d="M82.4,50.4H79.7a.4.4,0,1,1,0-.8h2.7a.4.4,0,1,1,0,.8Z"/><path class="cls-1" d="M81,60.1a.4.4,0,0,1-.4-.4V57a.4.4,0,1,1,.8,0v2.7A.4.4,0,0,1,81,60.1Z"/><path class="cls-1" d="M82.4,58.7H79.7c-.3,0-.4-.1-.4-.4a.4.4,0,0,1,.4-.4h2.7a.4.4,0,0,1,.4.4A.4.4,0,0,1,82.4,58.7Z"/><path class="cls-1" d="M87.3,44a.4.4,0,0,1-.4-.4V40.9a.4.4,0,0,1,.4-.4.5.5,0,0,1,.5.4v2.7A.5.5,0,0,1,87.3,44Z"/><path class="cls-1" d="M88.7,42.7H86a.4.4,0,0,1-.4-.4.4.4,0,0,1,.4-.4h2.7a.4.4,0,0,1,.4.4A.4.4,0,0,1,88.7,42.7Z"/><path class="cls-1" d="M82,37.2a.5.5,0,0,1-.4-.5V34.1a.4.4,0,0,1,.8,0v2.6A.5.5,0,0,1,82,37.2Z"/><path class="cls-1" d="M83.3,35.8H80.7a.4.4,0,1,1,0-.8h2.6a.4.4,0,1,1,0,.8Z"/><path class="cls-1" d="M91.8,57.5a.5.5,0,0,1-.4-.5V54.4a.4.4,0,1,1,.8,0V57A.5.5,0,0,1,91.8,57.5Z"/><path class="cls-1" d="M93.1,56.1H90.5a.4.4,0,1,1,0-.8h2.6a.4.4,0,1,1,0,.8Z"/><path class="cls-1" d="M94.9,48.9a.4.4,0,0,1-.4-.4V45.8a.4.4,0,0,1,.4-.4.4.4,0,0,1,.4.4v2.7A.4.4,0,0,1,94.9,48.9Z"/><path class="cls-1" d="M96.3,47.6H93.6a.5.5,0,0,1-.4-.5.4.4,0,0,1,.4-.4h2.7a.4.4,0,0,1,.4.4A.5.5,0,0,1,96.3,47.6Z"/><path class="cls-1" d="M87.3,66.8a.4.4,0,0,1-.4-.4V63.7a.4.4,0,0,1,.4-.4.5.5,0,0,1,.5.4v2.7A.5.5,0,0,1,87.3,66.8Z"/><path class="cls-1" d="M88.7,65.4H86a.4.4,0,0,1-.4-.4.4.4,0,0,1,.4-.4h2.7a.4.4,0,0,1,.4.4A.4.4,0,0,1,88.7,65.4Z"/><path class="cls-1" d="M88.2,49.6a.5.5,0,0,1-.5-.5.6.6,0,0,1,.5-.6.6.6,0,0,1,.6.6A.6.6,0,0,1,88.2,49.6Zm0-.8a.3.3,0,0,0-.3.3c0,.1.2.2.3.2s.3-.1.3-.2A.3.3,0,0,0,88.2,48.8Z"/><path class="cls-1" d="M92.6,51.9a.6.6,0,0,1-.5-.6.5.5,0,0,1,.5-.5.6.6,0,0,1,.6.5A.6.6,0,0,1,92.6,51.9Zm0-.8-.3.2a.3.3,0,0,0,.3.3.3.3,0,0,0,.3-.3C92.9,51.2,92.8,51.1,92.6,51.1Z"/><path class="cls-1" d="M91,45.3a.6.6,0,0,1-.5-.6.5.5,0,0,1,.5-.5.6.6,0,0,1,.6.5A.6.6,0,0,1,91,45.3Zm0-.9c-.1,0-.2.2-.2.3s.1.3.2.3a.3.3,0,0,0,.3-.3A.3.3,0,0,0,91,44.4Z"/><path class="cls-1" d="M84.3,46.9a.6.6,0,0,1-.6-.5.6.6,0,0,1,.6-.6.6.6,0,0,1,.5.6A.5.5,0,0,1,84.3,46.9Zm0-.8a.3.3,0,0,0-.3.3.3.3,0,0,0,.3.3.5.5,0,0,0,.3-.3A.3.3,0,0,0,84.3,46.1Z"/><path class="cls-1" d="M86,54.9a.5.5,0,0,1-.5-.5.6.6,0,0,1,.5-.6.6.6,0,0,1,.6.6A.6.6,0,0,1,86,54.9Zm0-.8a.3.3,0,0,0-.3.3.5.5,0,0,0,.3.3.3.3,0,0,0,.3-.3A.3.3,0,0,0,86,54.1Z"/><path class="cls-1" d="M87.7,60.2a.5.5,0,0,1-.5-.5.6.6,0,0,1,.5-.6.6.6,0,0,1,.6.6A.6.6,0,0,1,87.7,60.2Zm0-.8a.3.3,0,0,0-.3.3.3.3,0,0,0,.6,0A.3.3,0,0,0,87.7,59.4Z"/><path class="cls-1" d="M82.5,63.2a.6.6,0,0,1-.6-.5.6.6,0,0,1,.6-.6.6.6,0,0,1,.5.6A.5.5,0,0,1,82.5,63.2Zm0-.8a.3.3,0,0,0-.3.3.3.3,0,0,0,.3.3l.3-.3A.3.3,0,0,0,82.5,62.4Z"/><path class="cls-1" d="M80.5,55a.5.5,0,0,1-.5-.5.6.6,0,0,1,.5-.6.6.6,0,0,1,.6.6A.6.6,0,0,1,80.5,55Zm0-.8a.3.3,0,0,0-.3.3.5.5,0,0,0,.3.3.3.3,0,0,0,.3-.3A.3.3,0,0,0,80.5,54.2Z"/><path class="cls-1" d="M79.8,45.4a.6.6,0,0,1-.5-.6.5.5,0,0,1,1,0A.6.6,0,0,1,79.8,45.4Zm0-.8c-.2,0-.3.1-.3.2a.3.3,0,1,0,.6,0C80.1,44.7,80,44.6,79.8,44.6Z"/><path class="cls-1" d="M82,40.2a.6.6,0,0,1-.5-.6.5.5,0,1,1,1,0A.6.6,0,0,1,82,40.2Zm0-.9a.3.3,0,0,0-.3.3.3.3,0,0,0,.6,0A.3.3,0,0,0,82,39.3Z"/><path class="cls-1" d="M88.4,38.2a.6.6,0,0,1-.6-.5.6.6,0,0,1,.6-.6.6.6,0,0,1,.5.6A.5.5,0,0,1,88.4,38.2Zm0-.8a.3.3,0,0,0-.3.3c0,.1.1.2.3.2l.3-.2A.3.3,0,0,0,88.4,37.4Z"/></svg>