<svg id="Capa_1" data-name="Capa 1" xmlns="http://www.w3.org/2000/svg" viewBox="0 0 361.2 50.8"><defs><style>.cls-1{fill:#fff;}</style></defs><circle class="cls-1" cx="28.7" cy="7.5" r="3"/><path class="cls-1" d="M28.7,0a7.6,7.6,0,0,0-7.5,7.5,7.5,7.5,0,0,0,15,0A7.6,7.6,0,0,0,28.7,0Zm0,12.8A5.3,5.3,0,1,1,34,7.5,5.3,5.3,0,0,1,28.7,12.8Z"/><path class="cls-1" d="M33,16.1l6,5.3h.2a5,5,0,0,1,1.6-2.5,6.7,6.7,0,0,1,2.5-1.6c.1,0,.2-.2.1-.2l-5.5-6c-.1-.1-.2,0-.2.1a6.5,6.5,0,0,1-1.8,2.8,6.8,6.8,0,0,1-2.9,2C32.9,15.9,32.9,16,33,16.1Z"/><circle class="cls-1" cx="44.9" cy="23" r="3.6"/><path class="cls-1" d="M43.4,32.2h2.9a.1.1,0,0,0,.1-.1l.4-6.8H42.9l.4,6.9Z"/><path class="cls-1" d="M28.2,17.1c.1,0,0-.1-.1-.1A8.9,8.9,0,0,1,24,16a10.7,10.7,0,0,1-3.6-3.5h-.1L6.3,43.2c0,.1,0,.2.1.2h12a.1.1,0,0,0,.1-.1Z"/><path class="cls-1" d="M5,45.7H20.3a5,5,0,0,1,5,5v.1a0,0,0,0,1,0,0H0a0,0,0,0,1,0,0v-.1A5,5,0,0,1,5,45.7Z"/><rect class="cls-1" x="40" y="43.4" width="9.7" height="7.37" rx="0.2"/><path class="cls-1" d="M44.4,34.5h1a.1.1,0,0,1,.1.1l-.3,4.3c0,.1,0,.1-.1.1h-.4a.1.1,0,0,1-.1-.1l-.3-4.3A.1.1,0,0,1,44.4,34.5Z"/><path class="cls-1" d="M40.6,39.4l.2-.6h.1l3.7,1.5h0v.2c0,.1,0,.1-.1.1l-3.8-1.2Z"/><path class="cls-1" d="M40,41.1l.2-.5h.1l4.1,1.8h.1v.3h-.1l-4.2-1.5C40,41.2,40,41.2,40,41.1Z"/><path class="cls-1" d="M49.3,39.3v-.5H49l-3.6,1.4a.3.3,0,0,0-.1.2h.2l3.7-1.1C49.3,39.4,49.4,39.4,49.3,39.3Z"/><path class="cls-1" d="M49.9,41.1l-.2-.5c0-.1-.1-.1-.2-.1l-3.9,1.8c-.1,0-.1.1-.1.2h.2l4.1-1.5A.1.1,0,0,0,49.9,41.1Z"/><polygon class="cls-1" points="60.7 47.8 60.7 27.3 64.8 27.3 71.3 36.7 71.3 36.7 77.9 27.3 81.8 27.3 81.8 47.8 77.8 47.8 77.8 34.3 71.7 42.8 70.9 42.8 64.8 34.3 64.8 47.8 60.7 47.8"/><path class="cls-1" d="M96.5,42.8s-.8,1.8-3.7,1.8-4.1-1.7-4.1-3.3h11.5s.6-8.7-7.6-8.7-7.8,7.8-7.8,7.8-.3,7.7,7.9,7.7A7.7,7.7,0,0,0,99.9,44Zm-3.9-7a3.5,3.5,0,0,1,3.7,3.3H88.7A3.8,3.8,0,0,1,92.6,35.8Z"/><path class="cls-1" d="M180,42.8s-.8,1.8-3.7,1.8-4.1-1.7-4.1-3.3h11.5s.6-8.7-7.6-8.7-7.8,7.8-7.8,7.8-.3,7.7,7.9,7.7a7.7,7.7,0,0,0,7.2-4.1Zm-3.9-7a3.5,3.5,0,0,1,3.7,3.3h-7.6A3.7,3.7,0,0,1,176.1,35.8Z"/><path class="cls-1" d="M112.3,35.8h-4.4v7.3s0,1.4,1.9,1.4a2.6,2.6,0,0,0,1.8-.5l1,3s-.3.9-3.5.9a4.7,4.7,0,0,1-4.8-4.8V35.8h-2.6V32.9h2.4V28.2h4v4.7h4.2"/><path class="cls-1" d="M121.6,32.4a7.6,7.6,0,0,0-7.4,7.9,7.4,7.4,0,1,0,14.8,0A7.6,7.6,0,0,0,121.6,32.4Zm.6,11.8a3.9,3.9,0,0,1-4-3.9,4.1,4.1,0,0,1,8.1,0A4,4,0,0,1,122.2,44.2Z"/><rect class="cls-1" x="126.3" y="32.9" width="4.1" height="14.9"/><rect class="cls-1" x="134.1" y="26.3" width="4" height="21.46"/><rect class="cls-1" x="141.8" y="32.8" width="4" height="15.03"/><rect class="cls-1" x="151.5" y="35.5" width="4.2" height="12.3"/><path class="cls-1" d="M161.4,35.8h1.2a2.8,2.8,0,0,1,2.8,2.8v9.2a0,0,0,0,1,0,0h-4a0,0,0,0,1,0,0v-12A0,0,0,0,1,161.4,35.8Z"/><path class="cls-1" d="M145.8,39.1s.2-3.3,2.9-3.3a2.7,2.7,0,0,1,2.8,2.7h4.2s.7-2.7,3-2.7a2.7,2.7,0,0,1,2.7,2.8h4s-.2-6-5.8-6c-4.1,0-5,2.2-5,2.2a5.4,5.4,0,0,0-4.5-2.2c-3.2,0-4.3,1.7-4.3,1.7Z"/><rect class="cls-1" x="222.8" y="32.8" width="4" height="15.03"/><path class="cls-1" d="M233.3,35.6H235a2.2,2.2,0,0,1,2.2,2.2V47.9a0,0,0,0,1,0,0h-3.9a0,0,0,0,1,0,0V35.6A0,0,0,0,1,233.3,35.6Z"/><path class="cls-1" d="M226.8,39.1s.8-3.4,3.5-3.3,3,2.7,3,2.7h3.9s.3-5.9-5.6-5.9a6.8,6.8,0,0,0-4.8,1.7Z"/><path class="cls-1" d="M197.7,38.3l3.4-1.3a7.7,7.7,0,0,0-7.1-4.4c-5.4,0-8.1,3.9-8.1,7.5s3.4,8,8,8,7.2-4.5,7.2-4.5l-3.5-1.2s-1.4,2.4-3.6,2.4a4.1,4.1,0,0,1-4.1-4.4c0-2.8,1.7-4.5,4.1-4.5S197.7,38.3,197.7,38.3Z"/><path class="cls-1" d="M272.1,32.4a7.6,7.6,0,0,0-7.4,7.9,7.4,7.4,0,1,0,14.8,0A7.6,7.6,0,0,0,272.1,32.4Zm.6,11.8a4,4,0,0,1-4.1-3.9,4,4,0,0,1,4.1-4,4.1,4.1,0,0,1,4.1,4A4,4,0,0,1,272.7,44.2Z"/><rect class="cls-1" x="276.8" y="32.9" width="4.1" height="14.9"/><path class="cls-1" d="M259.6,38.3,263,37a7.5,7.5,0,0,0-7.1-4.4c-5.3,0-8,3.9-8,7.5s3.4,8,8,8,7.1-4.5,7.1-4.5l-3.4-1.2s-1.5,2.4-3.6,2.4a4.2,4.2,0,0,1-4.2-4.4c0-2.8,1.8-4.5,4.1-4.5S259.6,38.3,259.6,38.3Z"/><path class="cls-1" d="M210.1,32.4a7.6,7.6,0,0,0-7.4,7.9,7.4,7.4,0,1,0,14.8,0A7.6,7.6,0,0,0,210.1,32.4Zm.6,11.8a3.9,3.9,0,0,1-4-3.9,4.1,4.1,0,0,1,8.1,0A4,4,0,0,1,210.7,44.2Z"/><rect class="cls-1" x="214.8" y="32.9" width="4.1" height="14.9"/><polygon class="cls-1" points="209 30.7 212.5 30.7 215.5 26.4 211.4 26.4 209 30.7"/><circle class="cls-1" cx="242.9" cy="28.6" r="2.2"/><rect class="cls-1" x="241" y="32.8" width="3.9" height="15.03"/><path class="cls-1" d="M352.5,32.4a7.6,7.6,0,0,0-7.4,7.9,7.4,7.4,0,1,0,14.7,0C359.8,35.9,356.5,32.4,352.5,32.4Zm.6,11.8a4,4,0,0,1-4.1-3.9,4.1,4.1,0,0,1,8.1,0A3.9,3.9,0,0,1,353.1,44.2Z"/><rect class="cls-1" x="357.1" y="32.9" width="4.1" height="14.9"/><path class="cls-1" d="M308.9,35.8h-4.4v7.3s0,1.4,1.9,1.4a2.6,2.6,0,0,0,1.8-.5l1,3s-.3.9-3.5.9a4.7,4.7,0,0,1-4.8-4.8V35.8h-2.5V32.9h2.3V28.2h4v4.7h4.2"/><path class="cls-1" d="M318.2,32.4c-4,0-7.3,3.5-7.3,7.9a7.4,7.4,0,1,0,14.7,0A7.6,7.6,0,0,0,318.2,32.4Zm.7,11.8a4,4,0,0,1-4.1-3.9,4.1,4.1,0,0,1,8.1,0A3.9,3.9,0,0,1,318.9,44.2Z"/><rect class="cls-1" x="322.9" y="32.9" width="4.1" height="14.9"/><rect class="cls-1" x="330.8" y="26.3" width="4" height="21.46"/><rect class="cls-1" x="291.9" y="27.2" width="4" height="20.65"/><circle class="cls-1" cx="340.2" cy="28.6" r="2.2"/><rect class="cls-1" x="338.3" y="32.8" width="3.9" height="15.03"/></svg>