<svg id="Capa_1" data-name="Capa 1" xmlns="http://www.w3.org/2000/svg" viewBox="0 0 100 100"><defs><style>.cls-1{fill:#ee6352;}</style></defs><path class="cls-1" d="M8.1,75.1a.4.4,0,0,1-.4-.4V40.8A33.1,33.1,0,0,1,40.8,7.7H74.3a.4.4,0,0,1,.4.4.4.4,0,0,1-.4.4H40.8A32.3,32.3,0,0,0,8.5,40.8V74.7A.4.4,0,0,1,8.1,75.1Z"/><path class="cls-1" d="M21.1,71.1a.5.5,0,0,1-.5-.4V42.9A22.3,22.3,0,0,1,42.9,20.6h32c.3,0,.4.2.4.5a.4.4,0,0,1-.4.4h-32A21.4,21.4,0,0,0,21.5,42.9V70.7A.4.4,0,0,1,21.1,71.1Z"/><path class="cls-1" d="M24.3,93.5H24c-.1,0-2-1.9-9.8-1.9s-9.7,1.9-9.7,1.9a.4.4,0,0,1-.5.1c-.2,0-.3-.2-.3-.4V76.4c0-.1.1-.2.1-.3s1.3-1.6,6.2-2.2a.7.7,0,0,1,.5.4c0,.2-.2.5-.4.5-3.9.4-5.2,1.4-5.5,1.7V92.3c1.1-.7,3.8-1.6,9.6-1.6h0c5.8,0,8.5,1,9.6,1.6V76.5c-.2-.3-2.1-1.9-9.6-1.9a.5.5,0,0,1-.4-.5.4.4,0,0,1,.4-.4c8.9,0,10.3,2.2,10.4,2.5s.1.1.1.2V93.1c0,.2-.1.4-.3.4Z"/><path class="cls-1" d="M14.2,96.1H9.9a.7.7,0,0,1-.4-.5.5.5,0,0,1,.5-.4l4.2.2c6.9,0,8.9-1.1,9.4-1.7s.3-.4.3-.4h0l.8-.2a1.5,1.5,0,0,1-.3,1.1C23.3,95.4,19.8,96.1,14.2,96.1Z"/><path class="cls-1" d="M93.2,24.8H76.5c-.1,0-.2,0-.2-.1s-1.7-1.2-2.2-6.1a.3.3,0,0,1,.3-.5c.3,0,.5.1.5.4.4,3.8,1.5,5.2,1.8,5.5H92.4c-.7-1.2-1.6-3.8-1.6-9.7s1-8.4,1.6-9.6H76.6c-.3.3-1.9,2.1-1.9,9.6a.5.5,0,0,1-.4.5.5.5,0,0,1-.5-.5C73.8,5.5,76,4,76.3,3.9H93.2c.2,0,.4.1.4.2s.1.4-.1.5-1.9,1.9-1.9,9.7,1.9,9.8,1.9,9.8.2.3.1.4S93.4,24.8,93.2,24.8Z"/><path class="cls-1" d="M95.7,19h-.1a.4.4,0,0,1-.4-.4,28.2,28.2,0,0,0,.2-4.3c0-7.3-1.2-9-1.7-9.4a.6.6,0,0,0-.4-.2h0a.5.5,0,0,1-.5-.3c0-.3.1-.5.3-.5s.6-.1,1.1.3,2.1,4.6,2.1,10.1c0,1.7-.1,3.1-.2,4.4S95.9,19,95.7,19Z"/></svg>