<svg id="Capa_1" data-name="Capa 1" xmlns="http://www.w3.org/2000/svg" viewBox="0 0 100 100"><defs><style>.cls-1{fill:#18559e;stroke:#18559e;stroke-miterlimit:10;}</style></defs><path class="cls-1" d="M37.3,91.3l-.4-.2L9.3,36.3V36l.2-.3L45.6,17.5a.4.4,0,0,1,.4.8l-35.8,18,27.3,54L91.6,63.1,64.3,9l-6.5,3.3a.4.4,0,0,1-.5-.2c-.1-.2-.1-.4.1-.5l6.9-3.5h.3a.2.2,0,0,1,.2.2L92.5,63.1a.4.4,0,0,1-.2.5L37.5,91.2Z"/><path class="cls-1" d="M35.5,96.9a.3.3,0,0,1-.3-.3L7.5,41.9v-.3L9.3,36c.1-.2.3-.4.5-.3s.4.3.3.5L8.3,41.6,35.7,95.9,90,68.6l1.7-5.5a.4.4,0,0,1,.5-.2.5.5,0,0,1,.3.5L90.7,69l-.2.2L35.7,96.8Z"/><path class="cls-1" d="M50.9,28.3H48.6a.5.5,0,0,1-.4-.2l-2.8-7.3V3.5a.4.4,0,0,1,.8,0v17l2.6,7h2.1a.4.4,0,0,1,0,.8Z"/><path class="cls-1" d="M50.9,42.3a.4.4,0,0,1-.4-.4v-14a.4.4,0,0,1,.8,0v14A.4.4,0,0,1,50.9,42.3Z"/><path class="cls-1" d="M48.6,39.8a.5.5,0,0,1-.4-.2l-2.6-4.3a.4.4,0,0,1,.2-.5c.2-.1.4-.1.5.1l2.6,4.3a.3.3,0,0,1-.1.5Z"/><path class="cls-1" d="M45.8,41.2h-.2L43,39.5a.6.6,0,0,1-.1-.6.7.7,0,0,1,.6-.1L46,40.5a.4.4,0,0,1,.1.6C46.1,41.2,45.9,41.2,45.8,41.2Z"/><path class="cls-1" d="M56.3,41.4c-.1,0-.2,0-.3-.2a.3.3,0,0,1,.1-.5L58.7,39c.1-.1.4,0,.5.1s.1.5-.1.6l-2.5,1.7Z"/><path class="cls-1" d="M53.6,40.1h-.2a.5.5,0,0,1-.2-.6l2.6-4.2a.5.5,0,0,1,.6-.2.5.5,0,0,1,.1.6l-2.6,4.2C53.8,40.1,53.7,40.1,53.6,40.1Z"/><path class="cls-1" d="M50.9,55.7a7.1,7.1,0,0,1,0-14.2.4.4,0,0,1,0,.8,6.4,6.4,0,1,0,3,.8.5.5,0,0,1-.2-.6.4.4,0,0,1,.6-.1A7,7,0,0,1,58,48.6,7.1,7.1,0,0,1,50.9,55.7Z"/><path class="cls-1" d="M53.6,28.4h-.2a.4.4,0,0,1-.2-.5l3.7-7.3V4.4a.4.4,0,1,1,.8,0V20.8l-3.8,7.4C53.9,28.3,53.7,28.4,53.6,28.4Z"/></svg>