<svg id="Capa_1" data-name="Capa 1" xmlns="http://www.w3.org/2000/svg" viewBox="0 0 100 100"><defs><style>.cls-1{fill:#ee6352;}</style></defs><path class="cls-1" d="M96.8,96.8H90.2v-.4a2.9,2.9,0,0,0-2.9-2.2,3.1,3.1,0,0,0-2.9,2.2v.4h-9v-.4a2.9,2.9,0,0,0-2.9-2.2,3.1,3.1,0,0,0-2.9,2.2v.4h-9v-.4a2.9,2.9,0,0,0-2.9-2.2,2.9,2.9,0,0,0-2.8,2.2v.4h-9v-.4a2.9,2.9,0,0,0-2.8-2.2,2.9,2.9,0,0,0-2.9,2.2v.4h-9v-.4a3.1,3.1,0,0,0-2.9-2.2,2.9,2.9,0,0,0-2.9,2.2v.4h-9v-.4a3.1,3.1,0,0,0-2.9-2.2,2.9,2.9,0,0,0-2.9,2.2v.4H3.2V89l.7.3a3.3,3.3,0,0,0,1.4.4,3.1,3.1,0,0,0,3-3,3,3,0,0,0-3-3,3.2,3.2,0,0,0-1.4.3l-.7.4V68l.7.4a3.2,3.2,0,0,0,1.4.3,3,3,0,0,0,3-3,3.1,3.1,0,0,0-3-3,2.3,2.3,0,0,0-1.4.4l-.7.3V47.1l.7.3a3.2,3.2,0,0,0,1.4.3,3,3,0,1,0,0-5.9,3.2,3.2,0,0,0-1.4.3l-.7.4V26.1l.7.3a2.3,2.3,0,0,0,1.4.4,3,3,0,0,0,3-3,3.1,3.1,0,0,0-3-3,2.3,2.3,0,0,0-1.4.4l-.7.3V5.2l.7.3a3.2,3.2,0,0,0,1.4.3A3.1,3.1,0,0,0,8.2,3.6V3.2h9v.4a2.9,2.9,0,0,0,2.9,2.2,3.1,3.1,0,0,0,2.9-2.2V3.2h9v.4a2.9,2.9,0,0,0,2.9,2.2A3.1,3.1,0,0,0,38,3.6V3.2h9v.4A2.9,2.9,0,0,0,50,5.8a3.1,3.1,0,0,0,2.9-2.2V3.2h9v.4a2.9,2.9,0,0,0,2.9,2.2,3.1,3.1,0,0,0,2.9-2.2V3.2h9v.4a2.9,2.9,0,0,0,2.9,2.2,3.1,3.1,0,0,0,2.9-2.2V3.2h9v.4a2.9,2.9,0,0,0,2.9,2.2,3.2,3.2,0,0,0,1.4-.3l.7-.4V21.6l-.7-.4a2.3,2.3,0,0,0-1.4-.4,3,3,0,0,0-3,3,2.9,2.9,0,0,0,3,3,2.3,2.3,0,0,0,1.4-.4l.7-.3V42.5l-.7-.3a2.3,2.3,0,0,0-1.4-.4,3,3,0,1,0,0,5.9,3.2,3.2,0,0,0,1.4-.3l.7-.4V63.5l-.7-.4a3.3,3.3,0,0,0-1.4-.4,3,3,0,0,0-3,3,2.9,2.9,0,0,0,3,3,2.3,2.3,0,0,0,1.4-.4l.7-.3V84.4l-.7-.3a2.3,2.3,0,0,0-1.4-.4,2.9,2.9,0,0,0-3,3,3,3,0,0,0,3,3,3.3,3.3,0,0,0,1.4-.4l.7-.4Zm-5.9-.9h5V90.3l-1.2.2a3.8,3.8,0,0,1-3.9-3.8,3.9,3.9,0,0,1,3.9-3.9l1.2.2V69.3a2.7,2.7,0,0,1-1.2.3,3.9,3.9,0,0,1-3.9-3.9,3.8,3.8,0,0,1,3.9-3.8l1.2.2V48.4l-1.2.2a3.9,3.9,0,1,1,0-7.7l1.2.2V27.4a2.5,2.5,0,0,1-1.2.2,3.8,3.8,0,1,1,0-7.6,2.5,2.5,0,0,1,1.2.2V6.5l-1.2.2A4,4,0,0,1,91,4.1H83.4a3.9,3.9,0,0,1-3.6,2.6,4,4,0,0,1-3.7-2.6H68.5a3.9,3.9,0,0,1-3.6,2.6,4,4,0,0,1-3.7-2.6H53.6A3.9,3.9,0,0,1,50,6.7a4,4,0,0,1-3.7-2.6H38.7a3.9,3.9,0,0,1-3.6,2.6,4,4,0,0,1-3.7-2.6H23.8a3.9,3.9,0,0,1-3.6,2.6,4,4,0,0,1-3.7-2.6H8.9A3.9,3.9,0,0,1,5.3,6.7L4.1,6.5V20.2A2.5,2.5,0,0,1,5.3,20a3.8,3.8,0,0,1,0,7.6H4.1V41.1l1.2-.2a3.9,3.9,0,0,1,0,7.7l-1.2-.2V62.1a2.5,2.5,0,0,1,1.2-.2,3.8,3.8,0,0,1,3.8,3.8,3.9,3.9,0,0,1-3.8,3.9l-1.2-.2V83l1.2-.2a3.9,3.9,0,0,1,3.8,3.9,3.8,3.8,0,0,1-3.8,3.8l-1.2-.2v5.6h5a4,4,0,0,1,3.7-2.6,3.9,3.9,0,0,1,3.6,2.6H24a4,4,0,0,1,3.7-2.6,3.9,3.9,0,0,1,3.6,2.6h7.6a3.9,3.9,0,0,1,7.3,0h7.6a3.9,3.9,0,0,1,7.3,0h7.6a3.9,3.9,0,0,1,3.6-2.6A4,4,0,0,1,76,95.9h7.6a3.9,3.9,0,0,1,3.6-2.6A4,4,0,0,1,90.9,95.9ZM79.8,90.5a3.8,3.8,0,0,1-3.9-3.8,3.9,3.9,0,1,1,7.7,0A3.8,3.8,0,0,1,79.8,90.5Zm0-6.8a2.9,2.9,0,0,0-3,3,3,3,0,0,0,3,3,3.1,3.1,0,0,0,3-3A3,3,0,0,0,79.8,83.7ZM64.9,90.5A3.8,3.8,0,0,1,61,86.7a3.9,3.9,0,1,1,7.7,0A3.8,3.8,0,0,1,64.9,90.5Zm0-6.8a2.9,2.9,0,0,0-3,3,3,3,0,0,0,3,3,3.1,3.1,0,0,0,3-3A3,3,0,0,0,64.9,83.7ZM50,90.5a3.9,3.9,0,0,1-3.9-3.8A4,4,0,0,1,50,82.8a3.9,3.9,0,0,1,3.8,3.9A3.8,3.8,0,0,1,50,90.5Zm0-6.8a2.9,2.9,0,0,0-3,3,3,3,0,0,0,3,3,3.1,3.1,0,0,0,3-3A3,3,0,0,0,50,83.7ZM35.1,90.5a3.9,3.9,0,0,1-3.9-3.8,4,4,0,0,1,3.9-3.9,3.9,3.9,0,0,1,3.8,3.9A3.8,3.8,0,0,1,35.1,90.5Zm0-6.8a2.9,2.9,0,0,0-3,3,3,3,0,0,0,3,3,3.1,3.1,0,0,0,3-3A3,3,0,0,0,35.1,83.7ZM20.2,90.5a3.9,3.9,0,0,1-3.9-3.8,4,4,0,0,1,3.9-3.9A3.9,3.9,0,0,1,24,86.7,3.8,3.8,0,0,1,20.2,90.5Zm0-6.8a2.9,2.9,0,0,0-3,3,3,3,0,0,0,3,3,3.1,3.1,0,0,0,3-3A3,3,0,0,0,20.2,83.7Zm67-3.7a3.8,3.8,0,1,1,3.9-3.8A3.8,3.8,0,0,1,87.2,80Zm0-6.8a2.9,2.9,0,0,0-2.9,3,3,3,0,1,0,5.9,0A2.9,2.9,0,0,0,87.2,73.2ZM72.3,80a3.8,3.8,0,1,1,3.9-3.8A3.8,3.8,0,0,1,72.3,80Zm0-6.8a2.9,2.9,0,0,0-2.9,3,3,3,0,1,0,5.9,0A2.9,2.9,0,0,0,72.3,73.2ZM57.4,80a3.8,3.8,0,1,1,3.9-3.8A3.8,3.8,0,0,1,57.4,80Zm0-6.8a2.9,2.9,0,0,0-2.9,3,3,3,0,1,0,5.9,0A2.9,2.9,0,0,0,57.4,73.2ZM42.6,80a3.8,3.8,0,1,1,3.8-3.8A3.8,3.8,0,0,1,42.6,80Zm0-6.8a2.9,2.9,0,0,0-3,3,3,3,0,1,0,5.9,0A2.9,2.9,0,0,0,42.6,73.2ZM27.7,80a3.8,3.8,0,1,1,3.8-3.8A3.8,3.8,0,0,1,27.7,80Zm0-6.8a2.9,2.9,0,0,0-3,3,3,3,0,1,0,5.9,0A2.9,2.9,0,0,0,27.7,73.2ZM12.8,80a3.8,3.8,0,1,1,3.8-3.8A3.8,3.8,0,0,1,12.8,80Zm0-6.8a2.9,2.9,0,0,0-3,3,3,3,0,1,0,5.9,0A2.9,2.9,0,0,0,12.8,73.2Zm67-3.6a3.9,3.9,0,0,1-3.9-3.9,3.9,3.9,0,0,1,7.7,0A3.9,3.9,0,0,1,79.8,69.6Zm0-6.9a3,3,0,0,0-3,3,2.9,2.9,0,0,0,3,3,3,3,0,0,0,3-3A3.1,3.1,0,0,0,79.8,62.7ZM64.9,69.6A3.9,3.9,0,0,1,61,65.7a3.9,3.9,0,0,1,7.7,0A3.9,3.9,0,0,1,64.9,69.6Zm0-6.9a3,3,0,0,0-3,3,2.9,2.9,0,0,0,3,3,3,3,0,0,0,3-3A3.1,3.1,0,0,0,64.9,62.7ZM50,69.6a4,4,0,0,1-3.9-3.9A3.9,3.9,0,0,1,50,61.9a3.8,3.8,0,0,1,3.8,3.8A3.9,3.9,0,0,1,50,69.6Zm0-6.9a3,3,0,0,0-3,3,2.9,2.9,0,0,0,3,3,3,3,0,0,0,3-3A3.1,3.1,0,0,0,50,62.7ZM35.1,69.6a4,4,0,0,1-3.9-3.9,3.9,3.9,0,0,1,3.9-3.8,3.8,3.8,0,0,1,3.8,3.8A3.9,3.9,0,0,1,35.1,69.6Zm0-6.9a3,3,0,0,0-3,3,2.9,2.9,0,0,0,3,3,3,3,0,0,0,3-3A3.1,3.1,0,0,0,35.1,62.7ZM20.2,69.6a4,4,0,0,1-3.9-3.9,3.9,3.9,0,0,1,3.9-3.8A3.8,3.8,0,0,1,24,65.7,3.9,3.9,0,0,1,20.2,69.6Zm0-6.9a3,3,0,0,0-3,3,2.9,2.9,0,0,0,3,3,3,3,0,0,0,3-3A3.1,3.1,0,0,0,20.2,62.7Zm67-3.6a3.9,3.9,0,1,1,3.9-3.9A3.8,3.8,0,0,1,87.2,59.1Zm0-6.8a3,3,0,0,0,0,5.9,3,3,0,1,0,0-5.9ZM72.3,59.1a3.9,3.9,0,1,1,3.9-3.9A3.8,3.8,0,0,1,72.3,59.1Zm0-6.8a3,3,0,0,0,0,5.9,3,3,0,1,0,0-5.9ZM57.4,59.1a3.9,3.9,0,1,1,3.9-3.9A3.8,3.8,0,0,1,57.4,59.1Zm0-6.8a3,3,0,0,0,0,5.9,3,3,0,1,0,0-5.9ZM42.6,59.1a3.9,3.9,0,1,1,0-7.7,3.9,3.9,0,0,1,0,7.7Zm0-6.8a3,3,0,1,0,2.9,2.9A2.9,2.9,0,0,0,42.6,52.3ZM27.7,59.1a3.9,3.9,0,1,1,0-7.7,3.9,3.9,0,0,1,0,7.7Zm0-6.8a3,3,0,1,0,2.9,2.9A2.9,2.9,0,0,0,27.7,52.3ZM12.8,59.1a3.9,3.9,0,1,1,0-7.7,3.9,3.9,0,0,1,0,7.7Zm0-6.8a3,3,0,1,0,2.9,2.9A2.9,2.9,0,0,0,12.8,52.3Zm67-3.7a3.9,3.9,0,1,1,3.8-3.8A3.8,3.8,0,0,1,79.8,48.6Zm0-6.8a3,3,0,1,0,0,5.9,3,3,0,1,0,0-5.9ZM64.9,48.6a3.9,3.9,0,1,1,3.8-3.8A3.8,3.8,0,0,1,64.9,48.6Zm0-6.8a3,3,0,1,0,0,5.9,3,3,0,1,0,0-5.9ZM50,48.6a3.9,3.9,0,1,1,0-7.7,3.9,3.9,0,0,1,0,7.7Zm0-6.8a3,3,0,1,0,0,5.9,3,3,0,1,0,0-5.9ZM35.1,48.6a3.9,3.9,0,1,1,0-7.7,3.9,3.9,0,0,1,0,7.7Zm0-6.8a3,3,0,1,0,0,5.9,3,3,0,1,0,0-5.9ZM20.2,48.6a3.9,3.9,0,1,1,0-7.7,3.9,3.9,0,0,1,0,7.7Zm0-6.8a3,3,0,1,0,0,5.9,3,3,0,1,0,0-5.9Zm67-3.7a3.8,3.8,0,0,1-3.8-3.8,3.9,3.9,0,1,1,7.7,0A3.8,3.8,0,0,1,87.2,38.1Zm0-6.8a2.9,2.9,0,0,0-2.9,3,3,3,0,1,0,5.9,0A2.9,2.9,0,0,0,87.2,31.3ZM72.3,38.1a3.8,3.8,0,0,1-3.8-3.8,3.9,3.9,0,1,1,7.7,0A3.8,3.8,0,0,1,72.3,38.1Zm0-6.8a2.9,2.9,0,0,0-2.9,3,3,3,0,1,0,5.9,0A2.9,2.9,0,0,0,72.3,31.3ZM57.4,38.1a3.8,3.8,0,0,1-3.8-3.8,3.9,3.9,0,1,1,7.7,0A3.8,3.8,0,0,1,57.4,38.1Zm0-6.8a2.9,2.9,0,0,0-2.9,3,3,3,0,1,0,5.9,0A2.9,2.9,0,0,0,57.4,31.3ZM42.6,38.1a3.8,3.8,0,0,1-3.9-3.8,3.9,3.9,0,1,1,7.7,0A3.8,3.8,0,0,1,42.6,38.1Zm0-6.8a2.9,2.9,0,0,0-3,3,3,3,0,1,0,5.9,0A2.9,2.9,0,0,0,42.6,31.3ZM27.7,38.1a3.8,3.8,0,0,1-3.9-3.8,3.9,3.9,0,1,1,7.7,0A3.8,3.8,0,0,1,27.7,38.1Zm0-6.8a2.9,2.9,0,0,0-3,3,3,3,0,1,0,5.9,0A2.9,2.9,0,0,0,27.7,31.3ZM12.8,38.1a3.8,3.8,0,0,1-3.9-3.8,3.9,3.9,0,1,1,7.7,0A3.8,3.8,0,0,1,12.8,38.1Zm0-6.8a2.9,2.9,0,0,0-3,3,3,3,0,1,0,5.9,0A2.9,2.9,0,0,0,12.8,31.3Zm67-3.7a3.8,3.8,0,1,1,3.8-3.8A3.8,3.8,0,0,1,79.8,27.6Zm0-6.8a3,3,0,0,0-3,3,2.9,2.9,0,0,0,3,3,3,3,0,0,0,3-3A3.1,3.1,0,0,0,79.8,20.8ZM64.9,27.6a3.8,3.8,0,1,1,3.8-3.8A3.8,3.8,0,0,1,64.9,27.6Zm0-6.8a3,3,0,0,0-3,3,2.9,2.9,0,0,0,3,3,3,3,0,0,0,3-3A3.1,3.1,0,0,0,64.9,20.8ZM50,27.6A3.8,3.8,0,1,1,50,20a3.8,3.8,0,0,1,0,7.6Zm0-6.8a3,3,0,0,0-3,3,2.9,2.9,0,0,0,3,3,3,3,0,0,0,3-3A3.1,3.1,0,0,0,50,20.8ZM35.1,27.6a3.8,3.8,0,1,1,0-7.6,3.8,3.8,0,0,1,0,7.6Zm0-6.8a3,3,0,0,0-3,3,2.9,2.9,0,0,0,3,3,3,3,0,0,0,3-3A3.1,3.1,0,0,0,35.1,20.8ZM20.2,27.6a3.8,3.8,0,1,1,0-7.6,3.8,3.8,0,0,1,0,7.6Zm0-6.8a3,3,0,0,0-3,3,2.9,2.9,0,0,0,3,3,3,3,0,0,0,3-3A3.1,3.1,0,0,0,20.2,20.8Zm67-3.6a3.9,3.9,0,0,1-3.8-3.9,3.9,3.9,0,0,1,7.7,0A3.9,3.9,0,0,1,87.2,17.2Zm0-6.9a3,3,0,0,0-2.9,3,3,3,0,1,0,5.9,0A3,3,0,0,0,87.2,10.3ZM72.3,17.2a3.9,3.9,0,0,1-3.8-3.9,3.9,3.9,0,0,1,7.7,0A3.9,3.9,0,0,1,72.3,17.2Zm0-6.9a3,3,0,0,0-2.9,3,3,3,0,1,0,5.9,0A3,3,0,0,0,72.3,10.3ZM57.4,17.2a3.9,3.9,0,0,1-3.8-3.9,3.9,3.9,0,0,1,7.7,0A3.9,3.9,0,0,1,57.4,17.2Zm0-6.9a3,3,0,0,0-2.9,3,3,3,0,1,0,5.9,0A3,3,0,0,0,57.4,10.3ZM42.6,17.2a3.9,3.9,0,0,1-3.9-3.9,3.9,3.9,0,0,1,7.7,0A3.9,3.9,0,0,1,42.6,17.2Zm0-6.9a3,3,0,0,0-3,3,3,3,0,1,0,5.9,0A3,3,0,0,0,42.6,10.3ZM27.7,17.2a3.9,3.9,0,0,1-3.9-3.9,3.9,3.9,0,0,1,7.7,0A3.9,3.9,0,0,1,27.7,17.2Zm0-6.9a3,3,0,0,0-3,3,3,3,0,1,0,5.9,0A3,3,0,0,0,27.7,10.3ZM12.8,17.2a3.9,3.9,0,0,1-3.9-3.9,3.9,3.9,0,0,1,7.7,0A3.9,3.9,0,0,1,12.8,17.2Zm0-6.9a3,3,0,0,0-3,3,3,3,0,1,0,5.9,0A3,3,0,0,0,12.8,10.3Z"/></svg>