<svg id="Capa_1" data-name="Capa 1" xmlns="http://www.w3.org/2000/svg" viewBox="0 0 100 100"><defs><style>.cls-1{fill:#18559e;stroke:#18559e;stroke-miterlimit:10;}</style></defs><path class="cls-1" d="M69.5,11.1l-1.8-.3a5.1,5.1,0,0,1-2.5-2.5,5.3,5.3,0,0,1,0-3.5,4.9,4.9,0,0,1,2.5-2.6,5.5,5.5,0,0,1,3.6,0,5.3,5.3,0,0,1,2,1.6c.1.2.1.5-.1.6a.4.4,0,0,1-.6-.1A3.7,3.7,0,0,0,70.9,3,3.7,3.7,0,0,0,68,3a3.8,3.8,0,0,0-2,2.1A3.7,3.7,0,0,0,66,8a3.8,3.8,0,0,0,2.1,2A3.7,3.7,0,0,0,71,10a3.9,3.9,0,0,0,2-2,5.7,5.7,0,0,0,.3-1.8c0-.3.1-.5.4-.5a.4.4,0,0,1,.4.4,4.2,4.2,0,0,1-.3,2.2,5.1,5.1,0,0,1-2.5,2.5Z"/><path class="cls-1" d="M65.3,38.5a.1.1,0,0,1-.1-.1.3.3,0,0,1-.3-.5L73,8c.1-.2.3-.4.5-.3s.4.3.3.5l-8.1,30A.4.4,0,0,1,65.3,38.5Z"/><path class="cls-1" d="M61.8,41.1a14.8,14.8,0,0,1-5.9-1.4c-7.2-2.9-7-5.8-7-6.1a.1.1,0,0,1,.1-.1L65.2,4.7c.2-.2.4-.3.6-.1a.4.4,0,0,1,.2.5L49.7,33.8c.1.4.5,2.7,6.5,5.1s8.3.8,8.3.8a.4.4,0,0,1,.6.1.5.5,0,0,1-.1.6A6.8,6.8,0,0,1,61.8,41.1Z"/><path class="cls-1" d="M37.3,98.1a13.8,13.8,0,0,1-5-1.1c-6.4-2.6-6.4-7.1-6.4-7.3h0L47.6,36.7a.4.4,0,0,1,.6-.2.4.4,0,0,1,.2.5L26.7,89.8c0,.6.5,4.2,5.9,6.4s8.4,0,8.8-.3l23-56c.1-.2.3-.4.5-.3a.7.7,0,0,1,.3.6L42.1,96.3H42C42,96.5,40.5,98.1,37.3,98.1Z"/></svg>