<svg id="Capa_1" data-name="Capa 1" xmlns="http://www.w3.org/2000/svg" viewBox="0 0 100 100"><defs><style>.cls-1{fill:#ee6352;}</style></defs><path class="cls-1" d="M72.9,8.6h-.3a.5.5,0,0,1,0-.6,1,1,0,0,0,.4-.5,2,2,0,0,0,0-1.1,1.8,1.8,0,0,0-.7-.8h-.1c-.2-.1-.9-.4-1.3-.2s-.4.1-.5-.1a.4.4,0,0,1,.1-.6,2.3,2.3,0,0,1,2.1.2,2,2,0,0,1,1.2,1.3,2,2,0,0,1-.1,1.7,1.8,1.8,0,0,1-.5.7Z"/><path class="cls-1" d="M71.8,12.3l-.9-.2-.4-.2a2.1,2.1,0,0,1-1.3-2,.5.5,0,0,1,.4-.5h0c.3,0,.4.2.4.5a1.7,1.7,0,0,0,.9,1.3h.3a1.3,1.3,0,0,0,1.9-.7,1.2,1.2,0,0,0,.1-1c-.2-.4-.4-.7-.8-.8h0c-.3-.1-1-.4-1.3-.2a.4.4,0,0,1-.6-.1c-.1-.2-.1-.5.1-.6a2.5,2.5,0,0,1,2.2.2A2.2,2.2,0,0,1,74,9.3a2.5,2.5,0,0,1-.1,1.7A2.3,2.3,0,0,1,71.8,12.3Z"/><path class="cls-1" d="M32.9,96.3a1.9,1.9,0,0,1-1-.3,2.5,2.5,0,0,1-1.4-2.2.4.4,0,0,1,.4-.4h0a.5.5,0,0,1,.5.4,1.5,1.5,0,0,0,.9,1.5,1.7,1.7,0,0,0,1.2,0,1.4,1.4,0,0,0,.9-.8L71.9,12.8a.5.5,0,0,1,.6-.2.4.4,0,0,1,.2.5L35.2,94.8a2.5,2.5,0,0,1-1.4,1.3Z"/><path class="cls-1" d="M29.6,94.7a1.8,1.8,0,0,1-1-.2,2.4,2.4,0,0,1-1.2-3.2L66.1,6.9a.4.4,0,0,1,.6-.2c.2,0,.3.2.2.5l-.2.8a1.4,1.4,0,0,0,.8,1.6l.4.2a1.5,1.5,0,0,0,1.9-.7,1.4,1.4,0,0,0,0-1.1,1.8,1.8,0,0,0-.7-.8h0A1.7,1.7,0,0,0,67.7,7c-.2.1-.4.1-.5-.1a.4.4,0,0,1,.1-.6c.8-.5,2,.1,2.1.1a2.5,2.5,0,0,1,1.2,1.3,2.3,2.3,0,0,1-3.1,2.9l-.3-.2A2,2,0,0,1,66,9.2L28.1,91.6a1.6,1.6,0,0,0,.8,2.1,1.5,1.5,0,0,0,2.1-.8L68.6,11.2a.4.4,0,0,1,.5-.2.5.5,0,0,1,.2.6L31.8,93.3A2.4,2.4,0,0,1,29.6,94.7Z"/><path class="cls-1" d="M69,7.1h-.1c-.3-.1-.4-.3-.3-.5a1.4,1.4,0,0,0-.8-1.7h0c-.3-.2-1-.4-1.3-.2a.5.5,0,0,1-.6-.2.5.5,0,0,1,.1-.6,2.5,2.5,0,0,1,2.2.2,2.4,2.4,0,0,1,1.2,2.7C69.3,7,69.2,7.1,69,7.1Z"/><path class="cls-1" d="M27.5,92.2h-.2a2.6,2.6,0,0,1-1.2-3.3L64.9,4.5a.4.4,0,0,1,.5-.2.5.5,0,0,1,.3.5l-.2.9a1.4,1.4,0,0,0,.8,1.6l.3.2a.4.4,0,1,1-.3.7h-.4a2.4,2.4,0,0,1-1.1-1.3L26.9,89.3a1.6,1.6,0,0,0,.8,2.1.4.4,0,0,1,.2.6A.5.5,0,0,1,27.5,92.2Z"/></svg>